<svg xmlns="http://www.w3.org/2000/svg" width="186" height="40" viewBox="0 0 186 40"><defs><clipPath id="woija"><path fill="#fff" d="M20 0h146c11.046 0 20 8.954 20 20 0 11.045-8.954 20-20 20H20C8.954 40 0 31.045 0 20 0 8.954 8.954 0 20 0z"/></clipPath></defs><g><g><path fill="#fff" d="M20 0h146c11.046 0 20 8.954 20 20 0 11.045-8.954 20-20 20H20C8.954 40 0 31.045 0 20 0 8.954 8.954 0 20 0z"/><path fill="none" stroke="#c2c2c2" stroke-linecap="round" stroke-linejoin="round" stroke-miterlimit="50" stroke-width="4" d="M20 0h146c11.046 0 20 8.954 20 20 0 11.045-8.954 20-20 20H20C8.954 40 0 31.045 0 20 0 8.954 8.954 0 20 0z" clip-path="url(&quot;#woija&quot;)"/></g></g></svg>